<svg xmlns="http://www.w3.org/2000/svg" width="225" height="137.616" class="brandFooter"><defs id="defs10"><clipPath id="clippath"><path class="cls-2" id="rect4" style="fill:none;stroke-width:0" d="M22.08 119.45H654v631.92H22.08z"/></clipPath><clipPath id="clippath-1"><path class="cls-2" id="rect7" style="fill:none;stroke-width:0" d="M22.08 119.45H654v631.92H22.08z"/></clipPath><style id="style2">.cls-1,.cls-2,.cls-3,.cls-4{stroke-width:0}.cls-1,.cls-3{fill-rule:evenodd}.cls-1,.cls-4{fill:#011e41}.cls-2{fill:none}.cls-3{fill:#00a0df}</style></defs><g clip-path="url(#clippath)" id="g174" transform="translate(-104.563 -446.638)" style="clip-path:url(#clippath)"><g clip-path="url(#clippath-1)" id="g172" style="clip-path:url(#clippath-1)"><path style="fill:#00a0df;fill-rule:evenodd;stroke-width:0" class="cls-3" d="M329.325 501.12c-4.004-37.162-57.51-60.873-119.51-52.958-61.999 7.91-109.018 44.451-105.014 81.612 4.004 37.16 57.511 60.872 119.51 52.958 62-7.915 109.019-44.452 105.014-81.613" id="path12"/><path style="fill:#011e41;fill-rule:evenodd;stroke-width:0" class="cls-1" d="M320.706 496.373a31.252 31.252 0 0 0-3.422-8.055 25.817 25.817 0 0 0-5.727-6.643c-2.3-1.897-4.976-3.403-8.037-4.525-3.06-1.118-6.516-1.676-10.365-1.676-3.042 0-5.845.324-8.398.971-2.559.648-4.901 1.53-7.042 2.648v-3.399h-16.313c-.033.587-.056 1.704-.075 3.352-.014 1.648-.033 3.695-.047 6.136-.019 2.44-.024 5.201-.024 8.276s-.009 6.328-.023 9.755c-.019 3.427-.033 6.952-.047 10.572-.019 3.62-.024 7.178-.024 10.68s-.009 6.886-.023 10.149c-.014 3.267-.033 6.253-.047 8.957-.019 2.708-.033 5.07-.047 7.084a492.598 492.598 0 0 0-.023 4.567v12.595a147.203 147.203 0 0 0 17.228-7.45v-5.619l-.14-23.05c2.135 1.062 4.473 1.883 7.013 2.47 2.54.587 5.333.868 8.375.84 3.755-.028 7.144-.61 10.168-1.741 3.028-1.132 5.67-2.657 7.938-4.568a26.636 26.636 0 0 0 5.68-6.666 31.168 31.168 0 0 0 3.422-8.075 34.05 34.05 0 0 0 1.141-8.806c0-3.019-.38-5.943-1.14-8.783m-15.417 14.28a14.445 14.445 0 0 1-2.55 4.9c-1.15 1.442-2.605 2.597-4.37 3.465-1.765.869-3.826 1.305-6.192 1.305-2.234 0-4.196-.366-5.9-1.103-1.7-.737-3.141-1.704-4.32-2.915a13.63 13.63 0 0 1-2.792-4.169 16.103 16.103 0 0 1-1.263-4.92v-3.178c.127-1.675.507-3.31 1.14-4.896a14.16 14.16 0 0 1 2.62-4.258c1.117-1.248 2.47-2.272 4.051-3.065 1.587-.793 3.432-1.249 5.535-1.366 2.394-.117 4.497.22 6.31 1.014 1.811.793 3.332 1.882 4.562 3.267a14.502 14.502 0 0 1 2.817 4.788 18.14 18.14 0 0 1 1.065 5.563 17.164 17.164 0 0 1-.727 5.582" id="path14"/><path style="fill:#011e41;stroke-width:0" class="cls-4" d="M258.947 534.337h-17.233v-3.352c-4.014 2.32-8.366 3.507-13.06 3.563-3.333.028-6.375-.324-9.126-1.06-2.751-.733-5.225-1.761-7.427-3.076-2.201-1.314-4.117-2.868-5.75-4.666a28.162 28.162 0 0 1-4.103-5.83 30.74 30.74 0 0 1-2.55-6.577 32.403 32.403 0 0 1-1.042-6.915c-.098-2.46.104-4.92.606-7.38a29.648 29.648 0 0 1 2.38-7.041 27.606 27.606 0 0 1 4.173-6.24c1.7-1.924 3.7-3.59 5.995-5.003 2.296-1.413 4.887-2.517 7.77-3.31 2.877-.793 6.05-1.188 9.515-1.188 2.526.029 4.873.277 7.037.742a28.526 28.526 0 0 1 6.07 2.014v-.68c0-.339.009-.69.023-1.062.014-.366.024-.704.024-1.018v-.597h16.407l.29 58.671zm-31.749-43.696c-1.943.057-3.699.474-5.267 1.254a11.868 11.868 0 0 0-4.004 3.201c-1.099 1.357-1.934 2.958-2.497 4.793-.568 1.84-.803 3.831-.705 5.981.033.99.17 2.037.413 3.14a17.855 17.855 0 0 0 2.788 6.342c.682.977 1.48 1.84 2.404 2.587a11.526 11.526 0 0 0 3.132 1.803c1.164.455 2.46.68 3.882.68 2.361 0 4.45-.464 6.262-1.398 1.812-.934 3.333-2.155 4.563-3.671a16.455 16.455 0 0 0 2.817-5.113c.648-1.896.972-3.788.972-5.684 0-1.897-.324-3.568-.972-5.282a13.282 13.282 0 0 0-2.864-4.54c-1.263-1.314-2.807-2.356-4.633-3.116-1.83-.765-3.925-1.09-6.286-.977" id="path16"/><path style="fill:#011e41;fill-rule:evenodd;stroke-width:0" class="cls-1" d="M136.479 523.178v11.384h79.842c-2.103-.61-4.041-1.38-5.792-2.324-2.202-1.182-4.117-2.581-5.751-4.201a25.393 25.393 0 0 1-4.103-5.253 26.8 26.8 0 0 1-1.343-2.638h-34.306l31.048-30.167.583-.568v-13.928h-14.351l-26.416-.07-.155.07h-5.802c-7.351 4.394-13.881 9.267-19.435 14.492h40.917l-31.753 30.166-3.188 3.028z" id="path50"/><path style="fill:#00a0df;fill-rule:evenodd;stroke-width:0" class="cls-3" d="M329.325 501.12c-4.004-37.162-57.51-60.873-119.51-52.958-61.999 7.91-109.018 44.451-105.014 81.612 4.004 37.16 57.511 60.872 119.51 52.958 62-7.915 109.019-44.452 105.014-81.613" id="path52"/><path style="fill:#011e41;fill-rule:evenodd;stroke-width:0" class="cls-1" d="M320.706 496.373a31.252 31.252 0 0 0-3.422-8.055 25.817 25.817 0 0 0-5.727-6.643c-2.3-1.897-4.976-3.403-8.037-4.525-3.06-1.118-6.516-1.676-10.365-1.676-3.042 0-5.845.324-8.398.971-2.559.648-4.901 1.53-7.042 2.648v-3.399h-16.313c-.033.587-.056 1.704-.075 3.352-.014 1.648-.033 3.695-.047 6.136-.019 2.44-.024 5.201-.024 8.276s-.009 6.328-.023 9.755c-.019 3.427-.033 6.952-.047 10.572-.019 3.62-.024 7.178-.024 10.68s-.009 6.886-.023 10.149c-.014 3.267-.033 6.253-.047 8.957-.019 2.708-.033 5.07-.047 7.084a492.598 492.598 0 0 0-.023 4.567v12.595a147.203 147.203 0 0 0 17.228-7.45v-5.619l-.14-23.05c2.135 1.062 4.473 1.883 7.013 2.47 2.54.587 5.333.868 8.375.84 3.755-.028 7.144-.61 10.168-1.741 3.028-1.132 5.67-2.657 7.938-4.568a26.636 26.636 0 0 0 5.68-6.666 31.168 31.168 0 0 0 3.422-8.075 34.05 34.05 0 0 0 1.141-8.806c0-3.019-.38-5.943-1.14-8.783m-15.417 14.28a14.445 14.445 0 0 1-2.55 4.9c-1.15 1.442-2.605 2.597-4.37 3.465-1.765.869-3.826 1.305-6.192 1.305-2.234 0-4.196-.366-5.9-1.103-1.7-.737-3.141-1.704-4.32-2.915a13.63 13.63 0 0 1-2.792-4.169 16.103 16.103 0 0 1-1.263-4.92v-3.178c.127-1.675.507-3.31 1.14-4.896a14.16 14.16 0 0 1 2.62-4.258c1.117-1.248 2.47-2.272 4.051-3.065 1.587-.793 3.432-1.249 5.535-1.366 2.394-.117 4.497.22 6.31 1.014 1.811.793 3.332 1.882 4.562 3.267a14.502 14.502 0 0 1 2.817 4.788 18.14 18.14 0 0 1 1.065 5.563 17.164 17.164 0 0 1-.727 5.582" id="path86"/><path style="fill:#011e41;stroke-width:0" class="cls-4" d="M258.947 534.337h-17.233v-3.352c-4.014 2.32-8.366 3.507-13.06 3.563-3.333.028-6.375-.324-9.126-1.06-2.751-.733-5.225-1.761-7.427-3.076-2.201-1.314-4.117-2.868-5.75-4.666a28.162 28.162 0 0 1-4.103-5.83 30.74 30.74 0 0 1-2.55-6.577 32.403 32.403 0 0 1-1.042-6.915c-.098-2.46.104-4.92.606-7.38a29.648 29.648 0 0 1 2.38-7.041 27.606 27.606 0 0 1 4.173-6.24c1.7-1.924 3.7-3.59 5.995-5.003 2.296-1.413 4.887-2.517 7.77-3.31 2.877-.793 6.05-1.188 9.515-1.188 2.526.029 4.873.277 7.037.742a28.526 28.526 0 0 1 6.07 2.014v-.68c0-.339.009-.69.023-1.062.014-.366.024-.704.024-1.018v-.597h16.407l.29 58.671zm-31.749-43.696c-1.943.057-3.699.474-5.267 1.254a11.868 11.868 0 0 0-4.004 3.201c-1.099 1.357-1.934 2.958-2.497 4.793-.568 1.84-.803 3.831-.705 5.981.033.99.17 2.037.413 3.14a17.855 17.855 0 0 0 2.788 6.342c.682.977 1.48 1.84 2.404 2.587a11.526 11.526 0 0 0 3.132 1.803c1.164.455 2.46.68 3.882.68 2.361 0 4.45-.464 6.262-1.398 1.812-.934 3.333-2.155 4.563-3.671a16.455 16.455 0 0 0 2.817-5.113c.648-1.896.972-3.788.972-5.684 0-1.897-.324-3.568-.972-5.282a13.282 13.282 0 0 0-2.864-4.54c-1.263-1.314-2.807-2.356-4.633-3.116-1.83-.765-3.925-1.09-6.286-.977" id="path88"/><path style="fill:#011e41;fill-rule:evenodd;stroke-width:0" class="cls-1" d="M136.488 523.493v11.421h79.824c-2.103-.615-4.037-1.385-5.793-2.333-2.202-1.187-4.117-2.591-5.75-4.215a25.47 25.47 0 0 1-4.103-5.268 27.403 27.403 0 0 1-1.343-2.642h-34.302l31.044-30.26.582-.569v-13.97h-14.346l-26.41-.07-.156.07h-5.802c-7.347 4.408-13.877 9.295-19.43 14.538h40.907l-31.748 30.26-3.188 3.038z" id="path90"/><path style="fill:#00a0df;fill-rule:evenodd;stroke-width:0" class="cls-3" d="M329.325 501.12c-4.004-37.162-57.51-60.873-119.51-52.958-61.999 7.91-109.018 44.451-105.014 81.612 4.004 37.16 57.511 60.872 119.51 52.958 62-7.915 109.019-44.452 105.014-81.613" id="path92"/><path style="fill:#011e41;fill-rule:evenodd;stroke-width:0" class="cls-1" d="M320.706 496.373a31.252 31.252 0 0 0-3.422-8.055 25.817 25.817 0 0 0-5.727-6.643c-2.3-1.897-4.976-3.403-8.037-4.525-3.06-1.118-6.516-1.676-10.365-1.676-3.042 0-5.845.324-8.398.971-2.559.648-4.901 1.53-7.042 2.648v-3.399h-16.313c-.033.587-.056 1.704-.075 3.352-.014 1.648-.033 3.695-.047 6.136-.019 2.44-.024 5.201-.024 8.276s-.009 6.328-.023 9.755c-.019 3.427-.033 6.952-.047 10.572-.019 3.62-.024 7.178-.024 10.68s-.009 6.886-.023 10.149c-.014 3.267-.033 6.253-.047 8.957-.019 2.708-.033 5.07-.047 7.084a492.598 492.598 0 0 0-.023 4.567v12.595a147.203 147.203 0 0 0 17.228-7.45v-5.619l-.14-23.05c2.135 1.062 4.473 1.883 7.013 2.47 2.54.587 5.333.868 8.375.84 3.755-.028 7.144-.61 10.168-1.741 3.028-1.132 5.67-2.657 7.938-4.568a26.636 26.636 0 0 0 5.68-6.666 31.168 31.168 0 0 0 3.422-8.075 34.05 34.05 0 0 0 1.141-8.806c0-3.019-.38-5.943-1.14-8.783m-15.417 14.28a14.445 14.445 0 0 1-2.55 4.9c-1.15 1.442-2.605 2.597-4.37 3.465-1.765.869-3.826 1.305-6.192 1.305-2.234 0-4.196-.366-5.9-1.103-1.7-.737-3.141-1.704-4.32-2.915a13.63 13.63 0 0 1-2.792-4.169 16.103 16.103 0 0 1-1.263-4.92v-3.178c.127-1.675.507-3.31 1.14-4.896a14.16 14.16 0 0 1 2.62-4.258c1.117-1.248 2.47-2.272 4.051-3.065 1.587-.793 3.432-1.249 5.535-1.366 2.394-.117 4.497.22 6.31 1.014 1.811.793 3.332 1.882 4.562 3.267a14.502 14.502 0 0 1 2.817 4.788 18.14 18.14 0 0 1 1.065 5.563 17.164 17.164 0 0 1-.727 5.582" id="path94"/><path style="fill:#011e41;stroke-width:0" class="cls-4" d="M258.947 534.337h-17.233v-3.352c-4.014 2.32-8.366 3.507-13.06 3.563-3.333.028-6.375-.324-9.126-1.06-2.751-.733-5.225-1.761-7.427-3.076-2.201-1.314-4.117-2.868-5.75-4.666a28.162 28.162 0 0 1-4.103-5.83 30.74 30.74 0 0 1-2.55-6.577 32.403 32.403 0 0 1-1.042-6.915c-.098-2.46.104-4.92.606-7.38a29.648 29.648 0 0 1 2.38-7.041 27.606 27.606 0 0 1 4.173-6.24c1.7-1.924 3.7-3.59 5.995-5.003 2.296-1.413 4.887-2.517 7.77-3.31 2.877-.793 6.05-1.188 9.515-1.188 2.526.029 4.873.277 7.037.742a28.526 28.526 0 0 1 6.07 2.014v-.68c0-.339.009-.69.023-1.062.014-.366.024-.704.024-1.018v-.597h16.407l.29 58.671zm-31.749-43.696c-1.943.057-3.699.474-5.267 1.254a11.868 11.868 0 0 0-4.004 3.201c-1.099 1.357-1.934 2.958-2.497 4.793-.568 1.84-.803 3.831-.705 5.981.033.99.17 2.037.413 3.14a17.855 17.855 0 0 0 2.788 6.342c.682.977 1.48 1.84 2.404 2.587a11.526 11.526 0 0 0 3.132 1.803c1.164.455 2.46.68 3.882.68 2.361 0 4.45-.464 6.262-1.398 1.812-.934 3.333-2.155 4.563-3.671a16.455 16.455 0 0 0 2.817-5.113c.648-1.896.972-3.788.972-5.684 0-1.897-.324-3.568-.972-5.282a13.282 13.282 0 0 0-2.864-4.54c-1.263-1.314-2.807-2.356-4.633-3.116-1.83-.765-3.925-1.09-6.286-.977" id="path96"/><path style="fill:#011e41;fill-rule:evenodd;stroke-width:0" class="cls-1" d="M136.479 523.178v11.384h79.842c-2.103-.61-4.041-1.38-5.792-2.324-2.202-1.182-4.117-2.581-5.751-4.201a25.393 25.393 0 0 1-4.103-5.253 26.8 26.8 0 0 1-1.343-2.638h-34.306l31.048-30.167.583-.568v-13.928h-14.351l-26.416-.07-.155.07h-5.802c-7.351 4.394-13.881 9.267-19.435 14.492h40.917l-31.753 30.166-3.188 3.028z" id="path130"/><path style="fill:#00a0df;fill-rule:evenodd;stroke-width:0" class="cls-3" d="M329.325 501.12c-4.004-37.162-57.51-60.873-119.51-52.958-61.999 7.91-109.018 44.451-105.014 81.612 4.004 37.16 57.511 60.872 119.51 52.958 62-7.915 109.019-44.452 105.014-81.613" id="path132"/></g><path style="fill:#011e41;stroke-width:0" d="M293.154 475.475c-3.042 0-5.844.322-8.398.97-2.559.648-4.9 1.531-7.041 2.649v-3.399h-16.313c-.033.587-.057 1.704-.076 3.352-.014 1.648-.033 3.694-.047 6.135-.019 2.44-.023 5.2-.023 8.275s-.01 6.329-.024 9.756a6588.78 6588.78 0 0 0-.046 10.572c-.02 3.62-.024 7.178-.024 10.68s-.009 6.886-.023 10.148c-.014 3.268-.033 6.253-.047 8.957-.019 2.709-.033 5.07-.047 7.084a491.957 491.957 0 0 0-.023 4.569v12.595a147.206 147.206 0 0 0 17.228-7.45v-5.62l-.14-23.049c2.135 1.061 4.473 1.882 7.013 2.469s5.333.868 8.375.84c3.756-.028 7.145-.611 10.168-1.742 3.028-1.132 5.67-2.656 7.938-4.567a26.634 26.634 0 0 0 5.68-6.666 31.172 31.172 0 0 0 3.423-8.074 34.049 34.049 0 0 0 1.14-8.807c0-3.017-.38-5.94-1.14-8.779a31.25 31.25 0 0 0-3.424-8.055 25.815 25.815 0 0 0-5.726-6.642c-2.3-1.897-4.977-3.404-8.037-4.526-3.061-1.117-6.516-1.675-10.366-1.675zm-137.263.11-.155.071h-5.802c-7.347 4.408-13.877 9.296-19.43 14.54h40.906l-31.748 30.26-3.187 3.036h.013v11.422h79.825c-2.104-.615-4.038-1.384-5.793-2.332-2.202-1.188-4.119-2.593-5.752-4.217a25.466 25.466 0 0 1-4.102-5.267 27.408 27.408 0 0 1-1.344-2.643h-34.3l31.042-30.26.583-.568v-13.97H182.3zm86.357.077v.596c0 .314-.009.653-.023 1.02-.015.37-.024.722-.024 1.06v.68a28.512 28.512 0 0 0-6.068-2.014c-2.164-.465-4.512-.714-7.037-.742-3.465 0-6.638.394-9.516 1.187-2.882.794-5.474 1.898-7.77 3.31-2.295 1.414-4.296 3.08-5.995 5.005a27.596 27.596 0 0 0-4.172 6.238 29.66 29.66 0 0 0-2.381 7.043 30.62 30.62 0 0 0-.606 7.379 32.333 32.333 0 0 0 1.043 6.914 30.732 30.732 0 0 0 2.55 6.578 28.153 28.153 0 0 0 4.1 5.83c1.634 1.798 3.551 3.352 5.753 4.666 2.201 1.315 4.674 2.342 7.425 3.074 2.751.737 5.794 1.091 9.127 1.063 4.695-.056 9.045-1.246 13.059-3.565v3.352h17.234v-.004l-.29-58.67zm50.742 14.783c1.687.083 3.21.423 4.569 1.018 1.812.793 3.332 1.883 4.562 3.267a14.496 14.496 0 0 1 2.817 4.788 18.152 18.152 0 0 1 1.066 5.564 17.156 17.156 0 0 1-.729 5.58l.014-.014a14.451 14.451 0 0 1-2.549 4.903c-1.15 1.441-2.604 2.594-4.369 3.463-1.765.868-3.827 1.306-6.193 1.306-2.235 0-4.197-.366-5.9-1.103-1.7-.737-3.14-1.705-4.319-2.916a13.626 13.626 0 0 1-2.793-4.168 16.105 16.105 0 0 1-1.264-4.92v-3.178a16.48 16.48 0 0 1 1.141-4.896 14.159 14.159 0 0 1 2.62-4.258c1.116-1.249 2.47-2.273 4.052-3.067 1.587-.793 3.43-1.247 5.533-1.365.599-.03 1.18-.031 1.742-.004zm-64.066.194c1.67.08 3.191.404 4.564.978 1.826.76 3.372 1.803 4.635 3.117a13.279 13.279 0 0 1 2.863 4.54c.648 1.713.971 3.384.971 5.28 0 1.897-.323 3.79-.97 5.686a16.46 16.46 0 0 1-2.817 5.114c-1.23 1.516-2.752 2.735-4.565 3.67-1.812.934-3.9 1.398-6.261 1.398-1.423 0-2.719-.224-3.883-.68a11.524 11.524 0 0 1-3.13-1.803 12.444 12.444 0 0 1-2.403-2.585 17.866 17.866 0 0 1-2.79-6.344 17.2 17.2 0 0 1-.413-3.14c-.099-2.15.137-4.141.705-5.981.563-1.836 1.4-3.437 2.498-4.793a11.865 11.865 0 0 1 4.004-3.201c1.568-.78 3.324-1.198 5.267-1.254h.004c.59-.029 1.164-.029 1.72-.002zM138 545.012v9.77h1.318v-4.127h3.077c2.121 0 2.896-1.536 2.896-2.897 0-1.578-1.09-2.746-2.896-2.746zm42.922 0-3.672 9.77h1.361l1.02-2.846h3.918l.969 2.845h1.441l-3.541-9.77zm47.033 0v1.361h1.195v-1.361zm-33.504.658v1.984h-.969v.996h.97v4.694c0 .859.256 1.527 1.439 1.527.122 0 .46-.053.896-.096v-.937h-.422c-.249 0-.722 0-.722-.559v-4.625l.004-.004h1.14v-.996h-1.14v-1.984zm29.973 0v1.984h-.967v.996h.967v4.694c0 .859.258 1.527 1.441 1.527.122 0 .46-.053.897-.096v-.937h-.422c-.249 0-.723 0-.723-.559v-4.625l.004-.004h1.14v-.996h-1.14v-1.984zm-85.11.469h2.68c1.09 0 1.936.393 1.936 1.632 0 1.32-.804 1.756-1.987 1.756h-2.629zm42.288.328h.027l1.441 4.3h-3.031zm-32.424.99c-2.352 0-3.414 1.757-3.414 3.959 0 2.051 1.183 3.563 3.183 3.563 1.146 0 1.605-.273 1.934-.489.901-.596 1.225-1.605 1.267-1.943h-1.201c-.037.535-.704 1.402-1.836 1.402-1.375 0-2.07-.858-2.07-2.342h5.197c0-2.516-1.004-4.15-3.06-4.15zm7.431 0c-2.352 0-3.414 1.757-3.414 3.959 0 1.948 1.061 3.403 2.897 3.54l-.733.99.23.257c.287-.08.41-.107.532-.107.188 0 .652.107.652.529 0 .507-.503.574-.761.574-.338 0-.545-.067-.883-.203l-.004.006-.23.545c.352.15.802.299 1.304.299 1.005 0 1.608-.543 1.608-1.252 0-.432-.26-1.02-1.143-1.02-.178 0-.272.025-.422.053l.502-.682c1.798-.15 2.423-1.618 2.531-2.68h-1.154c-.202 1.085-.898 1.684-1.701 1.684-1.643 0-1.944-1.473-1.944-2.736 0-1.263.476-2.68 1.96-2.68 1.004 0 1.535.573 1.685 1.526h1.154c-.094-1.24-.802-2.602-2.666-2.602zm43.973 0c-2.272 0-3.307 1.92-3.307 3.756 0 1.835 1.035 3.756 3.307 3.756 2.272 0 3.305-1.92 3.305-3.756 0-1.836-1.033-3.756-3.305-3.756zm18.898 0c-2.272 0-3.304 1.92-3.304 3.756 0 1.377.58 2.802 1.83 3.428a3.25 3.25 0 0 0 1.474.328c2.273 0 3.305-1.92 3.305-3.756 0-1.836-1.032-3.756-3.305-3.756zm-56.107.006c-1.536 0-2.59.51-2.867 1.775a3.25 3.25 0 0 0-.072.586h1.1a2.79 2.79 0 0 1 .099-.445c.152-.463.512-.93 1.533-.93 1.127 0 1.672.408 1.672 1.155 0 .709-.339.815-.625.843l-1.97.245c-1.987.244-2.165 1.634-2.165 2.23 0 .766.362 1.377.951 1.729.118.07.244.13.38.18.27.096.571.148.898.148 1.39 0 2.11-.652 2.574-1.155.042.545.206 1.088 1.267 1.088.273 0 .45-.078.653-.135v-.869a2.22 2.22 0 0 1-.395.057c-.244 0-.394-.123-.394-.424v-4.094c0-1.821-2.066-1.984-2.639-1.984zm-2.94 2.361h-.003l.004.004v-.004zm10.085-2.361c-1.404 0-2.694.708-2.694 2.272 0 .976.651 1.484 1.647 1.728l1.39.338c1.019.258 1.412.445 1.412 1.017 0 .79-.773 1.131-1.632 1.131-1.686 0-1.85-.896-1.893-1.455h-1.154c.042.855.244 2.489 3.06 2.489 1.606 0 2.817-.883 2.817-2.352 0-.967-.517-1.51-2-1.877l-1.198-.3c-.924-.23-1.29-.367-1.29-.954 0-.882 1.047-1.004 1.413-1.004 1.507 0 1.672.745 1.686 1.196h1.158c0-.353-.178-2.229-2.722-2.229zm38.039 0c-.958 0-1.543.467-1.885.861a3.671 3.671 0 0 0-.266.35h-.027v-1.01h-1.13v7.117h1.196v-3.877c0-1.929 1.197-2.367 1.877-2.367.888 0 1.117.72 1.117 1.32v4.924h1.198v-4.341c0-.953.657-1.907 1.676-1.907 1.018 0 1.318.666 1.318 1.647v4.601h1.197v-4.923c0-2-1.44-2.395-2.201-2.395-1.103 0-1.577.488-2.178 1.154-.206-.38-.615-1.154-1.892-1.154zm31.748 0c-1.537 0-2.59.51-2.868 1.775-.039.18-.063.376-.07.586h1.098c.02-.136.049-.29.1-.445.152-.463.514-.93 1.535-.93 1.126 0 1.67.408 1.67 1.155 0 .709-.34.815-.625.843l-1.971.245c-1.986.244-2.164 1.634-2.164 2.23 0 1.225.925 2.057 2.23 2.057 1.39 0 2.112-.652 2.572-1.155.043.545.207 1.088 1.268 1.088.272 0 .45-.078.652-.135v-.869a2.22 2.22 0 0 1-.394.057c-.244 0-.395-.123-.395-.424v-4.094c0-1.821-2.066-1.984-2.638-1.984zm-2.938 2.361h-.006l.006.004v-.004zm10.082-2.361c-1.403 0-2.693.708-2.693 2.272 0 .976.651 1.484 1.646 1.728l1.387.338c1.023.258 1.416.445 1.416 1.017 0 .79-.774 1.131-1.633 1.131-1.69 0-1.85-.896-1.892-1.455h-1.155c.043.855.244 2.489 3.06 2.489 1.606 0 2.817-.883 2.817-2.352 0-.967-.516-1.51-2-1.877l-1.197-.3c-.925-.23-1.29-.367-1.29-.954 0-.882 1.047-1.004 1.413-1.004 1.507 0 1.672.745 1.686 1.196h1.158c0-.353-.178-2.229-2.723-2.229zm-19.494.201v7.117h1.195v-7.117zm2.215 0 2.601 7.117h1.276l2.709-7.117h-1.305l-2.014 5.793h-.029l-1.85-5.793zm-43.522.006v5.115c0 1.7 1.268 2.204 2.315 2.204 1.14 0 1.755-.437 2.258-1.268l.027.027v1.034l-.004.004h1.131v-7.116h-1.197v3.918c0 1.033-.446 2.367-1.957 2.367-.775 0-1.375-.395-1.375-1.564v-4.72zm13.934.82c1.718 0 2.068 1.77 2.068 2.723 0 .953-.355 2.723-2.068 2.723-1.718 0-2.07-1.77-2.07-2.723 0-.238.02-.526.08-.826.18-.9.701-1.896 1.99-1.896zm18.898 0c1.719 0 2.07 1.77 2.07 2.723 0 .953-.356 2.723-2.07 2.723-1.718 0-2.07-1.77-2.07-2.723 0-.238.022-.526.082-.826.18-.9.7-1.896 1.988-1.896zm-70.459.044c1.456 0 1.921 1.017 1.987 2.12h-3.957c0-1.098.867-2.12 1.97-2.12zm15.79 2.615h.004c-.001 0-.003 0-.004.002v1.166c0 .953-1.086 1.676-2.204 1.676-.896 0-1.29-.464-1.29-1.239 0-.896.938-1.071 1.525-1.156 1.476-.191 1.776-.298 1.969-.447zm76.94 0v1.168c0 .953-1.089 1.675-2.206 1.675-.897 0-1.291-.463-1.291-1.238 0-.896.938-1.072 1.525-1.156 1.484-.193 1.78-.299 1.973-.45z" id="path18"/></g></svg>